<svg width="53" height="38" viewBox="0 0 53 38" fill="none" xmlns="http://www.w3.org/2000/svg">
<path d="M40.9472 20.5274C40.689 20.3502 40.3823 20.2097 40.0446 20.1138C39.707 20.0179 39.345 19.9685 38.9795 19.9685C38.614 19.9685 38.252 20.0179 37.9144 20.1138C37.5767 20.2097 37.27 20.3502 37.0118 20.5274L32.5753 23.5655C30.5185 23.1462 26.6805 22.1932 24.248 20.5274C21.8154 18.8615 20.4238 16.2332 19.8115 14.8247L24.248 11.7865C24.5066 11.6097 24.7119 11.3996 24.8519 11.1684C24.9919 10.9372 25.064 10.6893 25.064 10.439C25.064 10.1887 24.9919 9.94081 24.8519 9.70959C24.7119 9.47837 24.5066 9.26832 24.248 9.09147L13.1151 1.46753C12.8569 1.29038 12.5501 1.14983 12.2125 1.05394C11.8748 0.958049 11.5129 0.908691 11.1474 0.908691C10.7818 0.908691 10.4199 0.958049 10.0823 1.05394C9.74461 1.14983 9.43789 1.29038 9.17964 1.46753L1.63157 6.63656C0.573945 7.36083 -0.021663 8.35576 0.00060269 9.37165C0.0646166 12.0858 1.11389 21.5128 11.9629 28.9423C22.8118 36.3718 36.5776 37.0885 40.5437 37.1342H40.6216C42.0911 37.1342 43.48 36.7378 44.532 36.0173L52.0801 30.8483C52.3388 30.6714 52.544 30.4614 52.684 30.2302C52.824 29.9989 52.8961 29.7511 52.8961 29.5007C52.8961 29.2504 52.824 29.0026 52.684 28.7713C52.544 28.5401 52.3388 28.3301 52.0801 28.1532L40.9472 20.5274ZM40.5938 33.3203C37.1203 33.2803 25.236 32.6418 15.8983 26.2453C6.53002 19.8298 5.62269 11.6626 5.56703 9.33162L11.1474 5.51012L18.3448 10.439L14.7461 12.9034C14.4189 13.1273 14.1784 13.4034 14.0462 13.7069C13.9141 14.0104 13.8944 14.3317 13.989 14.6417C14.0558 14.8609 15.6896 20.0585 20.3097 23.2224C24.9298 26.3864 32.5197 27.5052 32.8397 27.5509C33.2921 27.6176 33.7617 27.6052 34.2053 27.5149C34.6489 27.4246 35.0522 27.2594 35.378 27.0344L38.9795 24.57L46.1769 29.4988L40.5938 33.3203Z" fill="#FDF7F7"/>
</svg>
